<svg width="251" height="235" viewBox="0 0 251 235" fill="none" xmlns="http://www.w3.org/2000/svg">
<path opacity="0.3" fill-rule="evenodd" clip-rule="evenodd" d="M0 193.096C2.307 195.365 4.55673 197.692 6.747 200.074C7.30101 200.675 7.80075 201.232 8.28539 201.787C8.07186 202.259 7.91263 202.753 7.81075 203.261C7.60258 204.227 7.60067 205.227 7.80514 206.195C8.00962 207.163 8.41591 208.078 8.99758 208.879C9.57926 209.68 10.3233 210.35 11.1813 210.846C12.0393 211.342 12.9921 211.652 13.9777 211.756C14.9634 211.86 15.9597 211.756 16.902 211.451C17.8444 211.145 18.7116 210.645 19.4472 209.983C20.1829 209.321 20.7706 208.511 21.172 207.607C21.5735 206.704 21.7797 205.725 21.7774 204.736L22.1011 204.588C22.6767 204.325 23.2704 204.053 23.9102 203.775C28.8694 201.577 35.5632 198.902 42.3946 196.633C48.638 194.468 54.9957 192.647 61.4392 191.176C62.5455 190.923 63.5564 190.714 64.5082 190.524C65.0499 191.375 65.7694 192.1 66.6175 192.648C67.4655 193.196 68.4221 193.554 69.4217 193.699C70.4213 193.844 71.4403 193.772 72.4088 193.487C73.3774 193.202 74.2726 192.712 75.0333 192.049C76.3898 193.112 77.8637 194.333 79.3177 195.612C81.448 197.508 83.4873 199.504 84.9446 201.075C85.1694 201.314 85.3719 201.545 85.5602 201.76L85.5608 201.761C85.7619 201.991 85.9467 202.202 86.1248 202.384C86.0727 202.801 86.1406 203.225 86.3206 203.605C86.5006 203.985 86.7853 204.307 87.1413 204.532L87.0551 205.299C86.8471 207.008 86.4797 209.265 86.0216 211.504C85.5636 213.743 85.0058 215.969 84.5274 217.615C84.4703 217.894 84.421 218.135 84.3052 218.354C83.9775 218.402 83.6646 218.521 83.3889 218.704C83.1133 218.887 82.8819 219.129 82.7113 219.412C82.5408 219.695 82.4355 220.013 82.403 220.342C82.3705 220.671 82.4116 221.003 82.5233 221.314C82.635 221.625 82.8146 221.908 83.049 222.141C83.2835 222.375 83.567 222.554 83.879 222.665C84.191 222.776 84.5237 222.816 84.8532 222.783C85.1826 222.75 85.5006 222.644 85.784 222.474L86.3977 222.898C87.8135 223.902 89.6086 225.322 91.3292 226.836C92.8998 228.198 94.399 229.64 95.8207 231.156L96.3385 231.741C96.267 231.872 96.2097 232.01 96.1675 232.153C96.1086 232.441 96.1071 232.738 96.1631 233.027C96.2191 233.316 96.3315 233.591 96.494 233.836C96.6564 234.081 96.8657 234.293 97.1098 234.457C97.354 234.622 97.6282 234.737 97.9169 234.796C98.2056 234.856 98.503 234.857 98.7923 234.802C99.0815 234.746 99.3569 234.634 99.6027 234.472C99.8485 234.31 100.06 234.101 100.225 233.858C100.39 233.614 100.505 233.341 100.564 233.053C100.577 232.917 100.578 232.781 100.569 232.645L101.288 232.321C102.863 231.623 104.997 230.771 107.168 230.046C109.157 229.361 111.18 228.781 113.229 228.309C113.584 228.232 113.904 228.165 114.207 228.109C114.392 228.412 114.646 228.666 114.949 228.851C115.252 229.036 115.595 229.147 115.949 229.173C116.304 229.198 116.659 229.139 116.986 229.001C117.312 228.862 117.601 228.647 117.827 228.374C118.054 228.101 118.211 227.778 118.287 227.432C118.363 227.085 118.355 226.726 118.263 226.383C118.172 226.041 118 225.725 117.761 225.462C117.522 225.199 117.224 224.997 116.892 224.873L116.957 224.171C117.14 222.466 117.472 220.193 117.922 217.953C118.318 215.892 118.824 213.854 119.439 211.847L119.684 211.112C120.014 211.075 120.332 210.966 120.615 210.791C120.897 210.616 121.136 210.38 121.315 210.1C121.494 209.821 121.608 209.505 121.649 209.175C121.69 208.846 121.656 208.512 121.551 208.197C121.445 207.882 121.27 207.595 121.039 207.356C120.808 207.118 120.526 206.934 120.214 206.818C119.902 206.702 119.569 206.657 119.238 206.687C118.906 206.716 118.586 206.819 118.3 206.988C118.21 206.923 118.12 206.862 118.027 206.798C117.917 206.723 117.804 206.645 117.681 206.555C115.977 205.322 114.341 203.999 112.778 202.592C111.059 201.07 109.437 199.458 108.264 198.189C108.114 198.029 107.987 197.887 107.86 197.745L107.86 197.744L107.805 197.684L107.731 197.601C107.8 197.48 107.856 197.352 107.896 197.218C107.96 196.889 107.948 196.549 107.86 196.225C107.772 195.9 107.611 195.6 107.389 195.348C107.422 194.726 107.486 193.797 107.595 192.688C107.818 190.598 108.241 187.841 108.797 185.081C109.354 182.321 110.052 179.644 110.68 177.613C110.805 177.191 110.931 176.808 111.052 176.448C111.35 176.308 111.612 176.101 111.817 175.843C112.023 175.586 112.166 175.284 112.237 174.963C112.248 174.829 112.246 174.695 112.233 174.561L112.945 174.236C114.494 173.548 116.584 172.719 118.713 172.008C120.663 171.335 122.647 170.766 124.657 170.303L125.62 170.099C125.774 170.343 125.975 170.554 126.211 170.72C126.447 170.885 126.714 171.002 126.996 171.064C127.569 171.181 128.165 171.067 128.653 170.745C129.141 170.424 129.481 169.922 129.598 169.35C129.696 168.848 129.613 168.326 129.364 167.878C129.114 167.431 128.714 167.085 128.233 166.904L128.294 166.225C128.473 164.542 128.795 162.314 129.233 160.134C129.625 158.117 130.122 156.122 130.723 154.157C130.76 153.979 130.817 153.823 130.876 153.662L130.876 153.661C130.904 153.583 130.933 153.504 130.961 153.42C131.423 153.377 131.858 153.188 132.205 152.88C132.551 152.572 132.789 152.162 132.885 151.709C132.943 151.426 132.944 151.134 132.889 150.85C132.834 150.567 132.724 150.296 132.564 150.055C132.404 149.814 132.199 149.606 131.959 149.444C131.719 149.282 131.449 149.169 131.166 149.111C130.637 149.009 130.09 149.107 129.63 149.386C129.543 149.323 129.458 149.265 129.372 149.204L129.369 149.203L129.366 149.2C129.256 149.124 129.143 149.045 129.018 148.954C127.346 147.745 125.741 146.447 124.21 145.065C122.522 143.581 120.905 141.986 119.78 140.75L119.261 140.173C119.327 140.05 119.382 139.922 119.426 139.79C119.543 139.219 119.427 138.624 119.105 138.136C118.783 137.649 118.28 137.31 117.707 137.192C117.134 137.075 116.538 137.19 116.05 137.511C115.562 137.833 115.222 138.334 115.105 138.906C115.087 139.054 115.085 139.204 115.1 139.353C114.881 139.465 114.662 139.57 114.411 139.683C112.525 140.517 110.593 141.241 108.623 141.852C106.483 142.545 104.307 143.137 102.664 143.515C102.474 143.563 102.302 143.6 102.134 143.636C102.06 143.651 101.987 143.667 101.913 143.683C101.603 143.265 101.15 142.975 100.64 142.865C100.136 142.761 99.6105 142.838 99.1569 143.081C98.7032 143.325 98.3497 143.719 98.1583 144.197C97.9669 144.674 97.9497 145.203 98.1097 145.692C98.2697 146.181 98.5967 146.599 99.0336 146.872L98.9474 147.639C98.7456 149.318 98.3783 151.536 97.9326 153.714C97.4869 155.893 96.9428 158.09 96.4721 159.698L96.2575 160.44C95.7485 160.519 95.2838 160.774 94.9446 161.161C94.6054 161.548 94.4133 162.042 94.4019 162.556C94.3905 163.07 94.5604 163.572 94.8821 163.974C95.2037 164.376 95.6566 164.652 96.1615 164.755C96.6922 164.862 97.2439 164.765 97.7049 164.482C97.8179 164.563 97.9271 164.638 98.0407 164.716C98.1271 164.776 98.2159 164.837 98.311 164.904C99.9886 166.108 101.603 167.398 103.148 168.768C104.7 170.131 106.177 171.577 107.574 173.098L108.08 173.665C108.008 173.796 107.951 173.934 107.909 174.077C107.831 174.476 107.866 174.888 108.009 175.268C108.152 175.648 108.398 175.981 108.72 176.23L108.633 177.194C108.417 179.286 107.987 182.041 107.423 184.8C106.858 187.558 106.161 190.235 105.54 192.268C105.202 193.345 104.898 194.217 104.693 194.796C104.389 194.941 104.124 195.154 103.915 195.417C103.707 195.681 103.562 195.989 103.492 196.317C103.475 196.468 103.473 196.62 103.486 196.771C103.403 196.809 103.322 196.849 103.239 196.889C103.097 196.958 102.95 197.029 102.781 197.099C100.859 197.949 98.889 198.69 96.8815 199.315C94.6983 200.023 92.4884 200.631 90.813 201.011C90.5315 201.079 90.294 201.125 90.0473 201.176C89.7291 200.754 89.2701 200.46 88.7533 200.346C88.4263 200.282 88.089 200.297 87.7688 200.388L87.5958 200.269C87.2188 200.009 86.8006 199.721 86.344 199.39C84.6042 198.123 82.3796 196.34 80.2688 194.463C78.8299 193.187 77.4457 191.875 76.2455 190.664C76.789 189.879 77.1685 188.992 77.3612 188.057C77.6916 186.426 77.4317 184.731 76.6278 183.272C75.8239 181.814 74.528 180.686 72.9706 180.091C73.0321 179.444 73.1014 178.759 73.1859 178.038C73.7519 172.656 74.7769 165.531 76.2099 158.489C77.4538 152.011 79.0457 145.605 80.9787 139.298L81.6907 137.088C82.6456 136.987 83.5693 136.691 84.4042 136.218C85.2391 135.745 85.9674 135.106 86.5436 134.339C87.1197 133.573 87.5315 132.696 87.7532 131.764C87.9749 130.832 88.0017 129.864 87.8321 128.92L88.0305 128.835C91.9971 127.181 97.3443 125.126 102.735 123.205C108.125 121.285 113.573 119.509 117.701 118.296C119.669 117.716 121.333 117.263 122.524 116.94C122.722 116.886 122.907 116.836 123.078 116.789C123.5 117.071 123.972 117.269 124.469 117.372C125.446 117.567 126.46 117.394 127.315 116.886C127.637 117.106 127.957 117.332 128.316 117.585L128.316 117.585L128.396 117.642C131.456 119.841 134.403 122.192 137.226 124.686C140.049 127.18 142.743 129.815 145.298 132.582L146.171 133.546C146.054 133.81 145.965 134.087 145.908 134.371C145.695 135.413 145.905 136.496 146.493 137.384C147.08 138.271 147.996 138.89 149.04 139.104L149.101 139.116L148.976 139.954C148.52 142.837 147.855 146.667 147.068 150.472C146.282 154.277 145.397 158.062 144.686 160.885C144.192 162.834 143.781 164.305 143.567 165.046C143.428 165.19 143.332 165.368 143.288 165.562C143.28 165.641 143.28 165.72 143.287 165.798L143.287 165.798C143.173 165.853 143.06 165.908 142.922 165.967C141.929 166.41 140.91 166.791 139.871 167.109C138.749 167.477 137.598 167.791 136.731 167.99C136.657 168.008 136.587 168.022 136.518 168.036L136.517 168.036C136.455 168.049 136.395 168.061 136.336 168.075C136.165 167.849 135.916 167.695 135.638 167.641C135.371 167.585 135.093 167.625 134.853 167.753C134.613 167.882 134.426 168.091 134.325 168.343C134.225 168.596 134.217 168.876 134.303 169.134C134.389 169.392 134.564 169.612 134.796 169.754L134.716 170.146C134.614 171.028 134.422 172.199 134.186 173.352C133.95 174.505 133.658 175.663 133.413 176.516L133.333 176.908C133.097 176.939 132.877 177.042 132.703 177.204C132.529 177.365 132.41 177.576 132.361 177.808C132.313 178.028 132.33 178.258 132.411 178.468C132.492 178.678 132.634 178.86 132.818 178.991C133.002 179.121 133.22 179.195 133.446 179.202C133.671 179.21 133.894 179.151 134.086 179.033C134.189 179.109 134.285 179.176 134.403 179.255C135.131 179.773 136.065 180.514 136.953 181.292C137.769 182.011 138.545 182.773 139.28 183.575C139.384 183.682 139.466 183.778 139.549 183.873C139.511 183.942 139.48 184.015 139.458 184.09C139.407 184.246 139.389 184.41 139.406 184.573C139.423 184.736 139.475 184.894 139.557 185.036C139.64 185.177 139.751 185.3 139.885 185.396C140.018 185.491 140.17 185.558 140.331 185.591C140.492 185.624 140.658 185.622 140.818 185.587C140.978 185.551 141.129 185.482 141.261 185.384C141.392 185.286 141.501 185.162 141.581 185.018C141.661 184.875 141.71 184.717 141.724 184.554C141.731 184.483 141.73 184.411 141.72 184.341L142.093 184.174C142.906 183.814 144.012 183.373 145.135 182.998C146.165 182.633 147.213 182.323 148.276 182.07C148.458 182.028 148.623 181.992 148.786 181.962C148.868 182.093 148.976 182.205 149.103 182.293C149.229 182.381 149.373 182.443 149.524 182.474C149.819 182.562 150.137 182.529 150.407 182.382C150.678 182.236 150.879 181.988 150.966 181.694C151.054 181.399 151.02 181.082 150.873 180.812C150.726 180.542 150.478 180.341 150.183 180.253L150.208 179.897C150.303 179.013 150.472 177.839 150.71 176.678C150.917 175.614 151.179 174.561 151.496 173.525L151.62 173.15C151.793 173.132 151.96 173.076 152.107 172.985C152.255 172.895 152.381 172.772 152.475 172.627C152.569 172.481 152.628 172.316 152.65 172.144C152.671 171.972 152.653 171.798 152.598 171.634C152.543 171.47 152.451 171.32 152.33 171.196C152.209 171.072 152.061 170.976 151.898 170.917C151.735 170.858 151.56 170.836 151.388 170.853C151.215 170.87 151.048 170.925 150.9 171.015C150.796 170.947 150.7 170.88 150.584 170.793C149.705 170.14 148.86 169.443 148.052 168.705C147.166 167.919 146.33 167.08 145.723 166.43C145.619 166.322 145.537 166.227 145.448 166.122C145.484 166.061 145.513 165.996 145.535 165.928C145.571 165.732 145.552 165.53 145.481 165.344C145.575 164.578 145.778 163.048 146.087 161.078C146.541 158.202 147.199 154.371 147.986 150.566C148.772 146.761 149.649 142.974 150.362 140.144L150.66 138.995C151.423 138.833 152.122 138.451 152.671 137.898C153.22 137.346 153.596 136.645 153.752 135.882C153.803 135.629 153.829 135.371 153.831 135.113C154.214 134.932 154.613 134.754 155.043 134.575C157.872 133.324 161.686 131.804 165.572 130.502C169.135 129.271 172.762 128.236 176.438 127.401C177.066 127.254 177.641 127.137 178.183 127.027C178.484 127.503 178.883 127.91 179.354 128.22C179.824 128.531 180.355 128.738 180.911 128.829C181.467 128.92 182.036 128.892 182.581 128.747C183.126 128.602 183.633 128.344 184.07 127.989C184.998 128.72 186.102 129.598 187.342 130.614C187.959 131.122 188.614 131.656 189.298 132.213C190.635 133.303 192.083 134.483 193.58 135.746L200.636 141.721L207.599 147.811C209.261 149.25 210.803 150.66 212.197 151.935C212.676 152.373 213.137 152.795 213.58 153.197C216.231 155.624 218.214 157.474 218.965 158.225C219.051 158.451 219.208 158.643 219.412 158.772L219.332 159.164C219.23 160.046 219.038 161.216 218.802 162.37C218.566 163.523 218.274 164.68 218.029 165.533L217.911 165.918C217.64 165.957 217.393 166.091 217.212 166.295C217.032 166.5 216.929 166.761 216.923 167.034C216.918 167.307 217.009 167.573 217.181 167.785C217.352 167.997 217.594 168.142 217.862 168.193C218.144 168.249 218.435 168.196 218.679 168.046C218.733 168.086 218.786 168.123 218.842 168.161C218.878 168.185 218.914 168.209 218.951 168.234L219.004 168.269C219.732 168.788 220.66 169.519 221.554 170.307C222.37 171.026 223.146 171.788 223.881 172.589C223.984 172.697 224.067 172.792 224.15 172.888L224.138 172.911C224.127 172.931 224.117 172.952 224.108 172.973C224.089 173.016 224.072 173.06 224.058 173.105C224.007 173.26 223.99 173.425 224.007 173.588C224.024 173.751 224.076 173.909 224.158 174.05C224.241 174.192 224.352 174.315 224.486 174.41C224.619 174.506 224.771 174.573 224.932 174.606C225.093 174.638 225.259 174.637 225.419 174.601C225.579 174.566 225.73 174.497 225.861 174.399C225.993 174.301 226.102 174.176 226.182 174.033C226.262 173.89 226.31 173.732 226.325 173.568C226.332 173.512 226.334 173.455 226.331 173.398C226.331 173.385 226.33 173.371 226.328 173.357L226.701 173.19C227.516 172.823 228.62 172.389 229.743 172.014C230.773 171.647 231.821 171.337 232.885 171.086L233.387 170.977C233.51 171.168 233.687 171.319 233.896 171.412C234.104 171.504 234.335 171.533 234.56 171.495C234.785 171.457 234.993 171.355 235.16 171.2C235.327 171.045 235.444 170.844 235.498 170.623C235.55 170.358 235.505 170.082 235.371 169.846C235.238 169.61 235.025 169.429 234.77 169.336L234.804 168.974C234.899 168.09 235.068 166.915 235.306 165.754C235.509 164.689 235.772 163.637 236.092 162.601L236.209 162.224C236.382 162.209 236.55 162.154 236.699 162.064C236.849 161.975 236.976 161.852 237.071 161.707C237.166 161.561 237.227 161.396 237.25 161.224C237.272 161.051 237.255 160.876 237.2 160.711C237.144 160.546 237.053 160.395 236.931 160.271C236.809 160.146 236.661 160.05 236.497 159.991C236.334 159.931 236.159 159.909 235.985 159.927C235.812 159.944 235.645 160.001 235.496 160.092C235.392 160.023 235.296 159.956 235.18 159.87C234.453 159.344 233.526 158.605 232.64 157.819C231.754 157.033 230.911 156.193 230.304 155.543L230.036 155.236C230.07 155.174 230.097 155.109 230.116 155.041C230.167 154.885 230.184 154.72 230.167 154.557C230.15 154.394 230.098 154.237 230.016 154.095C229.933 153.953 229.822 153.831 229.688 153.735C229.555 153.639 229.403 153.573 229.242 153.54C229.081 153.507 228.915 153.508 228.755 153.544C228.595 153.58 228.444 153.649 228.313 153.747C228.181 153.845 228.072 153.969 227.992 154.112C227.912 154.255 227.864 154.414 227.849 154.577C227.841 154.653 227.841 154.729 227.85 154.805C227.731 154.87 227.609 154.929 227.483 154.981C226.489 155.419 225.47 155.801 224.432 156.124C223.303 156.49 222.16 156.805 221.293 157.005L220.898 157.089C220.726 156.864 220.478 156.709 220.199 156.656L220.132 156.603L220.131 156.603C219.218 155.892 217.157 154.287 214.479 152.108C213.884 151.617 213.252 151.104 212.593 150.568L212.593 150.568C211.235 149.463 209.761 148.265 208.249 146.978C206.717 145.673 205.108 144.311 203.475 142.93C202.716 142.288 201.951 141.641 201.187 140.993L194.311 134.977C192.743 133.602 191.276 132.265 189.937 131.043C189.379 130.535 188.844 130.046 188.332 129.583C187.125 128.48 186.072 127.511 185.2 126.696C185.352 126.397 185.465 126.08 185.535 125.752C185.725 124.822 185.577 123.855 185.119 123.023C184.661 122.192 183.921 121.549 183.033 121.211L183.155 120.034C183.478 116.959 184.062 112.909 184.883 108.899C185.591 105.205 186.499 101.553 187.602 97.9576L188.001 96.6965C188.77 96.6116 189.497 96.3058 190.095 95.816C190.693 95.3263 191.135 94.6737 191.368 93.9377C191.831 93.7105 192.352 93.4716 192.988 93.2091C194.903 92.3914 197.497 91.4457 200.134 90.6346C202.553 89.8957 205.009 89.2815 207.491 88.7944L207.703 88.7562C208.151 88.6752 208.563 88.6009 208.935 88.5479C209.231 88.8034 209.587 88.9814 209.97 89.066C210.553 89.1798 211.158 89.0742 211.667 88.7694L211.753 88.8263C211.809 88.864 211.864 88.9017 211.921 88.94L212.001 88.9942C212.024 89.0101 212.048 89.0261 212.072 89.0423C212.116 89.072 212.161 89.1023 212.208 89.1334C212.257 89.1657 212.307 89.1988 212.36 89.233C214.208 90.5539 215.989 91.9667 217.695 93.466C219.402 94.971 221.031 96.5625 222.575 98.234C222.781 98.4569 222.953 98.6569 223.13 98.866C223.054 99.0092 222.991 99.1595 222.944 99.3148C222.815 99.9445 222.942 100.6 223.298 101.136C223.653 101.673 224.207 102.047 224.838 102.176C225.469 102.305 226.125 102.179 226.663 101.825C227.2 101.471 227.574 100.918 227.703 100.289C227.716 100.142 227.717 99.9956 227.706 99.8494L227.707 99.8491C227.951 99.7342 228.194 99.6193 228.488 99.491C230.215 98.7448 232.491 97.8127 234.845 97.0379C236.994 96.2913 239.182 95.6641 241.4 95.1592C241.701 95.0869 241.976 95.0327 242.237 94.9811L242.388 94.951L242.461 94.9364C242.722 95.3408 243.099 95.6583 243.542 95.8486C243.985 96.039 244.474 96.0934 244.948 96.0051C245.422 95.9167 245.859 95.6896 246.203 95.3526C246.546 95.0156 246.782 94.584 246.879 94.1128C246.98 93.5616 246.884 92.9924 246.606 92.5048C246.329 92.0173 245.889 91.6426 245.363 91.4465L245.434 90.6757C245.632 88.8236 245.983 86.3746 246.48 83.9474C246.905 81.7194 247.453 79.5165 248.121 77.3488L248.377 76.5608C248.955 76.5044 249.493 76.2411 249.892 75.8194C250.29 75.3978 250.522 74.8463 250.545 74.2669C250.567 73.6875 250.379 73.1193 250.015 72.6674C249.65 72.2154 249.134 71.9103 248.562 71.8082C247.981 71.693 247.378 71.7994 246.872 72.1064C246.747 72.0183 246.624 71.9331 246.494 71.8433L246.317 71.7211L246.183 71.6277C244.341 70.2903 242.569 68.8583 240.875 67.3374C239.022 65.7017 237.264 63.9443 236.001 62.5785C235.853 62.4228 235.721 62.2781 235.592 62.1363C235.547 62.0862 235.501 62.0365 235.456 61.9868L235.422 61.9495C235.495 61.8162 235.556 61.6759 235.602 61.5308C235.731 60.9011 235.604 60.2459 235.248 59.7093C234.893 59.1727 234.339 58.7987 233.708 58.6696C233.077 58.5404 232.421 58.6668 231.883 59.0207C231.346 59.3747 230.972 59.9274 230.843 60.5571C230.825 60.7184 230.823 60.8812 230.838 61.043C230.592 61.1655 230.356 61.2821 230.079 61.406C227.999 62.3268 225.868 63.1256 223.695 63.7986C221.334 64.5643 218.949 65.1836 217.133 65.5973C216.857 65.6645 216.618 65.7124 216.369 65.7624L216.31 65.7744C216.094 65.4937 215.818 65.2639 215.504 65.1013C215.189 64.9386 214.842 64.8472 214.488 64.8334C214.134 64.8196 213.781 64.8839 213.454 65.0216C213.128 65.1593 212.836 65.3671 212.6 65.6302C212.363 65.8933 212.187 66.2052 212.085 66.5438C211.983 66.8824 211.957 67.2394 212.008 67.5894C212.06 67.9394 212.189 68.2737 212.384 68.5687C212.58 68.8637 212.839 69.1121 213.141 69.2963L213.049 70.1334C212.828 71.9809 212.424 74.419 211.936 76.8402C211.449 79.2614 210.839 81.6653 210.323 83.4525L210.08 84.2587C209.633 84.3282 209.216 84.5232 208.876 84.8208C208.536 85.1184 208.289 85.5065 208.162 85.9396C207.762 86.1247 207.312 86.3232 206.812 86.5351C202.136 88.4992 197.272 89.9878 192.296 90.9784C191.992 91.0364 191.706 91.0877 191.435 91.1362L191.241 91.171C191.022 90.6424 190.691 90.167 190.271 89.7772C189.852 89.3873 189.353 89.0921 188.809 88.9115C188.265 88.7309 187.689 88.6692 187.119 88.7307C186.55 88.7921 186 88.9752 185.508 89.2675C185.162 89.0319 184.818 88.7888 184.428 88.5047C181.38 86.2931 178.45 83.9241 175.649 81.4075C172.577 78.6899 169.661 75.7845 167.566 73.5259C167.511 73.4667 167.456 73.4082 167.402 73.3504L167.317 73.2606L167.234 73.1734C167.027 72.956 166.831 72.7498 166.67 72.5573C166.767 72.3181 166.844 72.0711 166.9 71.8189C167.074 70.9662 166.964 70.0799 166.588 69.2944C166.212 68.5088 165.59 67.8668 164.815 67.4658C164.832 67.2405 164.848 67.0104 164.864 66.7748L164.864 66.7708C164.904 66.1984 164.946 65.5932 165.001 64.9436C165.308 61.174 165.859 56.1742 166.564 51.1902C167.269 46.2063 168.126 41.2457 168.887 37.5296C169.509 34.4881 170.051 32.3035 170.223 31.6097L170.223 31.6094C170.261 31.4557 170.281 31.3752 170.28 31.3749L170.151 31.3486C170.211 31.2352 170.259 31.1162 170.295 30.9932C170.307 30.889 170.308 30.7837 170.296 30.6793L170.86 30.4255C172.086 29.8912 173.743 29.2171 175.441 28.6534C176.987 28.1206 178.561 27.6693 180.156 27.3015C180.436 27.241 180.683 27.1894 180.92 27.1437C181.106 27.438 181.377 27.6697 181.696 27.8091C182.016 27.9484 182.37 27.989 182.712 27.9255C183.055 27.862 183.371 27.6973 183.618 27.4528C183.866 27.2084 184.035 26.8953 184.102 26.554C184.182 26.1539 184.115 25.7386 183.916 25.3826C183.716 25.0265 183.396 24.753 183.012 24.6111L183.067 24.0727C183.207 22.7348 183.465 20.9735 183.816 19.2232C184.122 17.6184 184.518 16.0319 185.001 14.471C185.03 14.328 185.077 14.203 185.123 14.0802C185.146 14.0217 185.168 13.9637 185.187 13.9045C185.551 13.8658 185.893 13.7128 186.164 13.4676C186.435 13.2223 186.62 12.8976 186.694 12.54C186.785 12.0871 186.692 11.6167 186.436 11.2317C186.18 10.8467 185.781 10.5784 185.328 10.4857C184.91 10.4027 184.476 10.4792 184.112 10.7001C184.063 10.666 184.015 10.6328 183.966 10.5993L183.966 10.5991C183.857 10.5237 183.746 10.4471 183.623 10.3567C182.299 9.39324 181.026 8.36207 179.808 7.26732C178.475 6.09136 177.207 4.82667 176.29 3.84589C176.17 3.71807 176.071 3.60389 175.97 3.48788L175.97 3.48749L175.97 3.48735C175.94 3.45357 175.911 3.41963 175.881 3.38515C175.933 3.29121 175.974 3.19172 176.004 3.0885C176.068 2.85794 176.083 2.61679 176.049 2.38001C176.015 2.14324 175.933 1.91589 175.808 1.71201C175.683 1.50814 175.517 1.33208 175.32 1.19479C175.124 1.05749 174.902 0.961867 174.667 0.913832C174.432 0.865797 174.19 0.866384 173.955 0.915544C173.721 0.964705 173.499 1.0614 173.304 1.19964C173.108 1.33787 172.944 1.51468 172.819 1.71915C172.695 1.92362 172.615 2.15141 172.582 2.38834L172.576 2.37924C172.564 2.49658 172.563 2.61492 172.575 2.73237L172.027 2.98925C170.534 3.65024 169.005 4.22628 167.447 4.71457C165.761 5.26475 164.028 5.73473 162.715 6.03169C162.514 6.08562 162.343 6.1187 162.162 6.15398L162.161 6.154L162.122 6.16162C161.967 5.95997 161.769 5.79491 161.542 5.67823C161.316 5.56154 161.066 5.49607 160.812 5.48648C160.557 5.47689 160.303 5.52342 160.069 5.62275C159.834 5.72207 159.625 5.87174 159.455 6.06115C159.285 6.25056 159.159 6.47505 159.086 6.71863C159.013 6.96221 158.994 7.21892 159.032 7.4705C159.07 7.72207 159.162 7.96233 159.303 8.17421C159.445 8.38608 159.631 8.56435 159.849 8.69635L159.78 9.30266C159.619 10.6283 159.329 12.391 158.972 14.1322C158.616 15.8734 158.183 17.6067 157.809 18.8967L157.636 19.4738C157.285 19.5262 156.959 19.6852 156.702 19.9291C156.445 20.173 156.27 20.49 156.2 20.837C156.127 21.1673 156.153 21.5117 156.275 21.8275C156.397 22.1432 156.609 22.4162 156.885 22.6125C157.161 22.8088 157.489 22.9198 157.828 22.9315C158.167 22.9433 158.501 22.8553 158.79 22.6785L159.265 23.0113C160.597 23.9672 161.88 24.9898 163.108 26.0751C164.44 27.2586 165.71 28.5158 166.616 29.5101L167.019 29.9618C166.963 30.0655 166.917 30.1745 166.882 30.287C166.826 30.5879 166.855 30.8984 166.966 31.1838L166.965 31.2164L166.965 31.2171C166.93 32.0231 166.837 34.1848 166.603 37.1881C166.296 40.9577 165.736 45.9634 165.033 50.9399C164.33 55.9163 163.455 60.8813 162.703 64.599L162.198 67.0639C161.424 67.2188 160.713 67.5981 160.155 68.1542C159.596 68.7102 159.213 69.4185 159.056 70.1905C158.997 70.4741 158.969 70.7635 158.974 71.0532L157.792 71.5968C154.349 73.122 150.82 74.4452 147.222 75.5597C143.319 76.8265 139.366 77.8788 136.369 78.6007C136.032 78.683 135.714 78.7531 135.407 78.8208C135.324 78.8391 135.242 78.8572 135.16 78.8752L135.04 78.9021C134.461 78.1377 133.624 77.6091 132.684 77.4149C131.76 77.2254 130.799 77.3665 129.969 77.8135C129.139 78.2606 128.494 78.985 128.146 79.8599C127.798 80.7347 127.769 81.7042 128.066 82.5982C128.362 83.4923 128.964 84.254 129.767 84.7498C129.716 84.9978 129.693 85.2568 129.669 85.5258C129.652 85.7148 129.635 85.9087 129.607 86.1071C129.24 89.1732 128.578 93.2158 127.757 97.2258C126.937 101.236 125.943 105.21 125.085 108.169L124.698 109.487C124.161 109.567 123.646 109.754 123.185 110.039C122.723 110.323 122.325 110.699 122.013 111.142C121.702 111.585 121.484 112.087 121.373 112.617C121.262 113.146 121.26 113.694 121.367 114.224C120.242 114.725 118.771 115.374 116.957 116.126C112.99 117.78 107.644 119.827 102.252 121.756C96.8602 123.684 91.4024 125.433 87.2802 126.655C87.2045 126.679 87.1364 126.705 87.0622 126.721C86.6143 125.897 86.0036 125.172 85.2671 124.59C84.5305 124.009 83.6835 123.582 82.7773 123.336C81.871 123.091 80.9244 123.031 79.9947 123.161C79.065 123.291 78.1717 123.609 77.3686 124.093L77.2237 123.992C76.6626 123.602 76.0825 123.197 75.4719 122.747C70.1217 118.864 64.9779 114.706 60.0616 110.288C54.6707 105.517 49.5654 100.428 45.8845 96.4554C45.3251 95.8623 44.8196 95.303 44.3393 94.7717L44.3143 94.7441C44.4943 94.3098 44.6338 93.8599 44.731 93.4C45.0381 91.5971 44.6308 89.7451 43.5953 88.2353C42.5597 86.7254 40.977 85.6759 39.1815 85.3085C37.3859 84.9412 35.5182 85.2846 33.9728 86.2664C32.4275 87.2482 31.3255 88.7914 30.8998 90.57C30.7952 91.077 30.7475 91.594 30.7575 92.1116C30.5772 92.1947 30.3955 92.2793 30.2114 92.3651L30.2087 92.3663L30.2035 92.3687L30.2014 92.3697L30.2006 92.3701L30.1996 92.3705C29.7129 92.5972 29.2095 92.8315 28.6732 93.0673C22.6338 95.7441 16.4429 98.0672 10.132 100.025C6.70749 101.139 3.25641 102.171 0 103.075V106.09C3.38859 104.758 7.07716 103.395 10.7965 102.124C17.0261 99.9136 23.3796 98.0669 29.8248 96.5934C30.1885 96.5184 30.532 96.4438 30.8646 96.3716L30.8667 96.3712L30.8679 96.3709C31.2855 96.2803 31.6859 96.1934 32.0872 96.1139C33.0948 97.5229 34.594 98.5048 36.2898 98.8663C37.9856 99.2278 39.755 98.9427 41.2497 98.0672C41.8634 98.4912 42.4951 98.9425 43.166 99.4331C47.5683 102.611 53.2372 107.062 58.628 111.832C63.6105 116.173 68.3624 120.771 72.8643 125.606C73.4149 126.182 73.9203 126.748 74.4061 127.295C73.6933 128.882 73.6049 130.678 74.1589 132.328C74.7136 133.98 75.8714 135.363 77.4017 136.202C77.3458 136.937 77.2762 137.7 77.1882 138.514C76.4916 145.074 75.4418 151.592 74.0434 158.038C72.6029 165.079 70.7394 172.032 69.1462 177.204C68.8558 178.174 68.5686 179.057 68.2998 179.883L68.2763 179.955C67.0775 180.332 66.0023 181.024 65.1623 181.957C64.3223 182.89 63.7482 184.03 63.4997 185.26C63.4694 185.408 63.4609 185.557 63.4524 185.707C63.4475 185.794 63.4426 185.882 63.4333 185.969C62.4718 186.437 61.3932 186.939 60.1976 187.475C54.1561 190.145 47.9753 192.49 41.6819 194.5C34.8461 196.753 27.8833 198.627 22.5909 199.837L22.4859 199.861C21.7022 200.036 20.9843 200.197 20.283 200.347C19.249 198.966 17.7366 198.019 16.0413 197.691C14.346 197.363 12.5896 197.677 11.1152 198.573C10.5075 198.158 9.88026 197.723 9.21385 197.249C6.07239 194.983 2.99985 192.626 0 190.182V193.096ZM103.519 168.412C105.059 169.784 106.671 171.074 108.348 172.275C108.495 172.384 108.629 172.469 108.758 172.551C108.821 172.591 108.883 172.63 108.944 172.671C109.408 172.39 109.962 172.293 110.495 172.4C111.009 172.509 111.464 172.804 111.774 173.227L112.515 173.064C114.167 172.688 116.34 172.104 118.476 171.394C120.441 170.763 122.372 170.031 124.261 169.201C124.38 169.145 124.495 169.092 124.608 169.04C124.851 168.927 125.079 168.822 125.288 168.72C125.298 168.651 125.312 168.583 125.33 168.516C125.412 168.142 125.591 167.795 125.849 167.512C126.107 167.228 126.436 167.018 126.802 166.901L127.085 166.017C127.578 164.413 128.164 162.24 128.613 160.047C129.049 158.038 129.375 156.008 129.59 153.964C129.607 153.834 129.613 153.714 129.619 153.602C129.627 153.458 129.634 153.325 129.661 153.193C129.254 152.972 128.929 152.626 128.731 152.207C128.534 151.789 128.475 151.318 128.564 150.864C128.609 150.727 128.665 150.594 128.732 150.466L128.226 149.9C126.82 148.389 125.335 146.953 123.778 145.597C122.092 144.105 120.323 142.715 118.952 141.72C118.726 141.555 118.533 141.422 118.333 141.286C117.875 141.564 117.328 141.658 116.803 141.55C116.278 141.443 115.813 141.142 115.5 140.707C115.305 140.744 115.121 140.784 114.916 140.828L114.777 140.857C112.764 141.318 110.78 141.895 108.835 142.587C106.712 143.307 104.616 144.126 103.067 144.815L102.355 145.14C102.367 145.268 102.367 145.397 102.355 145.525C102.265 145.964 102.041 146.364 101.715 146.671C101.389 146.978 100.976 147.177 100.532 147.241L100.31 147.981C99.8407 149.581 99.3026 151.788 98.8569 153.966C98.4112 156.145 98.0515 158.364 97.8497 160.043L97.7635 160.81C98.1424 161.047 98.4405 161.393 98.6181 161.803C98.7958 162.212 98.8446 162.665 98.7582 163.103C98.7166 163.244 98.6598 163.38 98.5888 163.508C98.7468 163.698 98.9063 163.879 99.093 164.082C100.494 165.6 101.971 167.045 103.519 168.412ZM103.168 198.246C101.117 198.717 99.0941 199.305 97.1101 200.006C94.951 200.75 92.8111 201.592 91.192 202.274C91.0308 202.341 90.884 202.408 90.7415 202.473C90.6484 202.515 90.5571 202.557 90.465 202.597C90.4897 202.861 90.4609 203.127 90.3801 203.379C90.2994 203.632 90.1685 203.865 89.9952 204.066C89.8219 204.266 89.6097 204.43 89.3715 204.547C89.1332 204.664 88.8738 204.731 88.6086 204.746L88.3864 205.486C87.899 207.137 87.3578 209.359 86.8997 211.597C86.4417 213.836 86.0727 216.101 85.8663 217.802L85.7801 218.57C86.1681 218.809 86.4735 219.162 86.6553 219.579C86.8372 219.997 86.8867 220.46 86.7973 220.906C86.7551 221.049 86.6978 221.188 86.6263 221.319L87.1366 221.902C88.2987 223.185 89.9342 224.807 91.6473 226.32C93.3604 227.833 95.1631 229.254 96.5713 230.257C96.6416 230.305 96.708 230.351 96.7722 230.396L96.7731 230.396L96.7739 230.397C96.9168 230.496 97.0493 230.588 97.1925 230.682C97.6644 230.396 98.2266 230.295 98.7692 230.4C99.2909 230.517 99.7542 230.815 100.077 231.241C100.323 231.189 100.553 231.142 100.826 231.08C102.51 230.694 104.725 230.103 106.903 229.379C108.908 228.741 110.876 227.995 112.799 227.145C113.18 226.972 113.536 226.809 113.844 226.652C113.854 226.584 113.867 226.516 113.886 226.449C113.968 226.066 114.151 225.713 114.415 225.423C114.678 225.134 115.014 224.919 115.388 224.801L115.683 223.895C116.184 222.254 116.775 220.058 117.238 217.797C117.681 215.746 118.013 213.672 118.233 211.585C118.249 211.46 118.255 211.343 118.261 211.232V211.232C118.27 211.084 118.277 210.947 118.305 210.814C117.897 210.584 117.572 210.231 117.376 209.806C117.181 209.381 117.124 208.906 117.215 208.447C117.26 208.304 117.319 208.166 117.393 208.036C117.331 207.967 117.269 207.897 117.207 207.826L117.205 207.825L117.201 207.82L117.201 207.82L117.201 207.82C117.099 207.704 116.993 207.584 116.874 207.458C115.44 205.92 113.927 204.457 112.34 203.075C110.621 201.553 108.787 200.134 107.42 199.123C107.225 198.982 107.055 198.864 106.88 198.741L106.794 198.681C106.328 198.968 105.771 199.066 105.234 198.956C104.698 198.846 104.224 198.537 103.908 198.091C103.826 198.108 103.747 198.124 103.667 198.14L103.667 198.14C103.508 198.172 103.35 198.204 103.168 198.246ZM145.299 167.003L144.977 166.772L144.971 166.724C144.726 166.872 144.435 166.922 144.155 166.865C143.875 166.808 143.626 166.647 143.46 166.414L143.459 166.415L143.459 166.415L143.459 166.415C143.337 166.437 143.214 166.459 143.074 166.492C142.013 166.743 140.967 167.054 139.94 167.422C138.823 167.806 137.719 168.24 136.906 168.599L136.524 168.773C136.535 168.838 136.537 168.904 136.531 168.97C136.481 169.203 136.361 169.415 136.187 169.577C136.013 169.74 135.794 169.845 135.558 169.879L135.478 170.271C135.225 171.122 134.943 172.266 134.706 173.427C134.468 174.588 134.284 175.759 134.174 176.64L134.094 177.032C134.298 177.153 134.46 177.335 134.556 177.551C134.653 177.768 134.68 178.009 134.634 178.242C134.611 178.317 134.58 178.39 134.542 178.459C134.625 178.554 134.708 178.65 134.811 178.757C135.546 179.559 136.322 180.321 137.138 181.04C137.948 181.764 138.797 182.443 139.681 183.076C139.797 183.162 139.901 183.23 140.005 183.299L140.005 183.299C140.248 183.145 140.541 183.091 140.823 183.149C141.105 183.207 141.353 183.371 141.516 183.608L141.903 183.522C142.778 183.324 143.919 183.016 145.049 182.65C146.083 182.315 147.1 181.928 148.096 181.491L148.21 181.438C148.365 181.367 148.508 181.301 148.637 181.233L148.658 181.127C148.702 180.93 148.797 180.748 148.934 180.6C149.07 180.451 149.244 180.341 149.437 180.281L149.589 179.81C149.849 178.96 150.155 177.813 150.392 176.652C150.626 175.594 150.8 174.523 150.915 173.445L150.948 173.051C150.815 172.995 150.696 172.911 150.598 172.805C150.5 172.7 150.426 172.575 150.379 172.439C150.333 172.303 150.316 172.158 150.329 172.015C150.342 171.872 150.386 171.733 150.456 171.608C150.418 171.564 150.381 171.52 150.341 171.476C150.293 171.422 150.243 171.368 150.187 171.309C149.446 170.512 148.663 169.754 147.842 169.039C146.954 168.26 146.02 167.519 145.299 167.003ZM227.75 155.601C226.689 155.852 225.643 156.163 224.616 156.531L224.615 156.538C223.497 156.922 222.401 157.318 221.547 157.685L221.174 157.852C221.181 157.923 221.18 157.994 221.17 158.064C221.12 158.295 221 158.505 220.826 158.666C220.652 158.827 220.434 158.931 220.199 158.964L220.081 159.349C219.836 160.202 219.554 161.346 219.317 162.506C219.079 163.667 218.887 164.837 218.785 165.72L218.705 166.112C218.908 166.235 219.068 166.416 219.164 166.632C219.261 166.849 219.289 167.089 219.245 167.321C219.235 167.354 219.224 167.386 219.211 167.417L219.202 167.438L219.195 167.454C219.191 167.462 219.188 167.471 219.184 167.479C219.181 167.484 219.178 167.49 219.176 167.495C219.168 167.51 219.161 167.524 219.153 167.538L219.423 167.837C220.161 168.637 220.94 169.4 221.757 170.121C222.567 170.845 223.416 171.525 224.3 172.157C224.356 172.199 224.41 172.237 224.462 172.272C224.498 172.297 224.534 172.321 224.569 172.344L224.624 172.38C224.868 172.23 225.16 172.178 225.441 172.233C225.718 172.292 225.966 172.449 226.138 172.674L226.525 172.588C227.392 172.389 228.541 172.082 229.665 171.707C230.703 171.38 231.722 170.996 232.717 170.557L232.832 170.504C232.987 170.433 233.13 170.367 233.258 170.299L233.28 170.193C233.323 169.996 233.418 169.813 233.555 169.665C233.691 169.516 233.866 169.407 234.059 169.347L234.211 168.876C234.471 168.026 234.776 166.879 235.014 165.718C235.247 164.66 235.422 163.589 235.536 162.511L235.57 162.117C235.365 161.994 235.204 161.811 235.107 161.594C235.011 161.376 234.985 161.133 235.032 160.9C235.055 160.825 235.085 160.752 235.123 160.683L234.854 160.384C234.11 159.591 233.327 158.836 232.507 158.122C231.623 157.328 230.685 156.602 229.966 156.078L229.644 155.847C229.398 155.992 229.108 156.041 228.828 155.987C228.548 155.927 228.3 155.764 228.134 155.531C228.004 155.551 227.889 155.575 227.75 155.601ZM212.85 87.1815C212.805 87.3382 212.74 87.4884 212.656 87.6288L212.721 87.7092C212.855 87.8773 213.005 88.0652 213.186 88.2712C214.446 89.652 216.207 91.3944 218.057 93.0452C219.762 94.5462 221.543 95.959 223.392 97.2783C223.475 97.3351 223.553 97.3884 223.627 97.4394L223.627 97.4396L223.633 97.4436C223.748 97.5223 223.854 97.5956 223.962 97.668C224.002 97.6952 224.042 97.7222 224.083 97.7494C224.585 97.4389 225.187 97.332 225.765 97.4504C226.344 97.5688 226.856 97.9036 227.195 98.3862L227.254 98.3743L227.255 98.3741L227.256 98.374C227.504 98.324 227.743 98.2761 228.018 98.2091C229.834 97.7953 232.234 97.1475 234.588 96.3727C236.754 95.6809 238.882 94.8737 240.962 93.9544C241.226 93.821 241.476 93.703 241.709 93.5925L241.709 93.5924C241.779 93.5595 241.847 93.5272 241.913 93.4955C241.955 93.4754 241.997 93.4556 242.038 93.4358C242.061 93.4249 242.083 93.414 242.105 93.4031C242.107 93.3852 242.108 93.368 242.107 93.3512C242.107 93.3322 242.105 93.3137 242.104 93.2953C242.103 93.2801 242.101 93.265 242.101 93.2497C242.1 93.2233 242.101 93.1964 242.106 93.1676C242.197 92.7547 242.394 92.3727 242.679 92.0602C242.964 91.7477 243.326 91.5156 243.73 91.3873L244.048 90.408C244.594 88.6269 245.232 86.2367 245.729 83.8095C246.209 81.5928 246.571 79.3519 246.811 77.0965L246.878 76.2699C246.437 76.022 246.085 75.641 245.874 75.1816C245.662 74.7221 245.602 74.2078 245.702 73.7124C245.748 73.5593 245.81 73.4114 245.886 73.2711L245.323 72.6376C243.77 70.9765 242.134 69.3942 240.422 67.8966C238.571 66.2534 236.617 64.7228 235.102 63.6275L234.413 63.1488C233.921 63.4392 233.341 63.5436 232.779 63.4427C232.194 63.3167 231.677 62.9786 231.328 62.494C231.042 62.5454 230.797 62.5895 230.508 62.6561C228.288 63.1601 226.1 63.7955 223.956 64.5589C221.614 65.3519 219.333 66.2674 217.605 67.0211C217.381 67.1135 217.186 67.2026 216.994 67.2901C216.935 67.317 216.876 67.3438 216.817 67.3704C216.829 67.5141 216.828 67.6585 216.815 67.802C216.715 68.2844 216.468 68.7243 216.109 69.0623C215.75 69.4003 215.296 69.6202 214.807 69.6922L214.564 70.4983C214.041 72.284 213.457 74.6775 212.96 77.1047C212.464 79.5319 212.074 81.9731 211.846 83.8191L211.746 84.6546C212.167 84.9127 212.498 85.2933 212.696 85.7452C212.893 86.1971 212.947 86.6984 212.85 87.1815ZM165.008 74.4761C165.152 74.5763 165.293 74.6773 165.437 74.7809L165.438 74.7813C165.638 74.9247 165.845 75.0732 166.076 75.2314C168.584 77.0484 171.811 79.5856 174.861 82.2985C177.704 84.7677 180.413 87.3877 182.974 90.1471C183.216 90.4063 183.441 90.6531 183.66 90.8929L183.664 90.8972L183.667 90.8998L183.863 91.1141C183.747 91.3688 183.661 91.6357 183.605 91.9097C183.437 92.7376 183.536 93.5976 183.888 94.3665C184.239 95.1354 184.826 95.7736 185.563 96.1897C185.532 96.6076 185.499 97.0405 185.443 97.5081C185.048 101.248 184.45 104.964 183.653 108.639C182.833 112.649 181.77 116.61 180.86 119.557L180.366 121.129C179.686 121.343 179.077 121.734 178.599 122.261C178.122 122.789 177.794 123.434 177.65 124.131C177.628 124.263 177.614 124.396 177.608 124.53C177.056 124.802 176.449 125.078 175.764 125.386C172.325 126.914 168.804 128.251 165.217 129.393C161.317 130.684 157.352 131.75 154.362 132.441C153.891 132.549 153.463 132.642 153.044 132.729C152.453 131.945 151.591 131.407 150.625 131.221C149.659 131.035 148.659 131.214 147.819 131.723C147.474 131.487 147.13 131.244 146.738 130.968C143.691 128.767 140.758 126.414 137.95 123.916C135.133 121.408 132.444 118.761 129.892 115.985C129.665 115.74 129.453 115.503 129.251 115.278L129.247 115.274L129.125 115.138L129.019 115.021C129.132 114.759 129.219 114.488 129.28 114.21C129.442 113.407 129.355 112.574 129.029 111.822C128.703 111.07 128.154 110.436 127.456 110.004C127.507 109.758 127.53 109.5 127.554 109.232V109.232V109.231C127.571 109.04 127.589 108.843 127.618 108.64C127.993 105.575 128.646 101.538 129.459 97.5268C130.271 93.5152 131.26 89.5316 132.124 86.5751C132.191 86.248 132.29 85.9462 132.386 85.6546L132.386 85.6543L132.386 85.6538C132.43 85.5223 132.472 85.3928 132.511 85.2641C133.454 85.1323 134.317 84.666 134.944 83.9505C135.57 83.2349 135.917 82.3181 135.921 81.3676C136.303 81.1944 136.71 81.0108 137.14 80.8318C139.971 79.5734 143.797 78.0708 147.671 76.751C151.231 75.4925 154.861 74.4443 158.545 73.612C158.999 73.5086 159.427 73.4156 159.837 73.3345C160.412 74.1353 161.266 74.6933 162.231 74.8995C163.178 75.1019 164.166 74.9509 165.008 74.4761ZM175.324 4.33979C175.276 4.30629 175.227 4.27303 175.179 4.23892L175.141 4.23118C174.755 4.43161 174.306 4.47746 173.887 4.35941C173.465 4.26768 173.092 4.02347 172.839 3.67376C172.701 3.70509 172.565 3.7321 172.414 3.76192L172.414 3.76195L172.413 3.76202L172.264 3.7917C170.666 4.16314 169.092 4.62766 167.548 5.18286C165.865 5.7572 164.194 6.42062 162.967 6.95492L162.404 7.20873C162.415 7.31053 162.415 7.41328 162.404 7.51508C162.332 7.8624 162.155 8.17927 161.897 8.42281C161.639 8.66636 161.312 8.82482 160.961 8.87678L160.786 9.46145C160.413 10.7438 159.989 12.4712 159.631 14.2199C159.274 15.9687 158.985 17.7238 158.823 19.057L158.755 19.6558C159.058 19.8416 159.297 20.1158 159.438 20.4411C159.58 20.7665 159.618 21.1274 159.548 21.475C159.518 21.5869 159.472 21.6939 159.412 21.7927C159.538 21.9442 159.666 22.0882 159.814 22.2519C160.924 23.454 162.095 24.598 163.323 25.6793C164.546 26.7688 165.826 27.7935 167.157 28.7491C167.335 28.8798 167.488 28.9816 167.647 29.085C168.013 28.86 168.451 28.7827 168.872 28.8689C169.293 28.955 169.666 29.1981 169.914 29.5487L170.499 29.4172C171.81 29.1278 173.543 28.6578 175.231 28.1001C176.79 27.5984 178.322 27.018 179.821 26.3613L180.639 25.9789C180.647 25.9257 180.658 25.8728 180.671 25.8206C180.737 25.5225 180.88 25.247 181.087 25.0218C181.293 24.7965 181.555 24.6295 181.847 24.5376L182.069 23.837C182.466 22.5517 182.928 20.8321 183.286 19.0833C183.63 17.4864 183.889 15.8722 184.062 14.2476C184.075 14.1532 184.079 14.0632 184.082 13.9759C184.087 13.8651 184.092 13.7587 184.113 13.6533C183.794 13.4748 183.54 13.1998 183.387 12.868C183.234 12.5361 183.191 12.1644 183.263 11.8066C183.297 11.6987 183.342 11.5947 183.398 11.4964L182.996 11.0372C181.886 9.85026 180.718 8.71995 179.494 7.65061C178.161 6.47465 176.757 5.37079 175.667 4.58232C175.544 4.49192 175.433 4.41531 175.324 4.33993L175.324 4.33979ZM69.424 56.1205C67.6183 54.1667 65.7136 52.3065 63.7173 50.5472C61.7158 48.774 59.6252 47.1038 57.4535 45.543C57.1866 45.3471 56.9394 45.1708 56.689 45.0097C56.3292 45.2258 55.9257 45.3594 55.5077 45.4009C55.0897 45.4424 54.6676 45.3907 54.2719 45.2496C53.8761 45.1084 53.5167 44.8814 53.2195 44.5848C52.9223 44.2882 52.6947 43.9295 52.5532 43.5346C52.4117 43.1397 52.3598 42.7185 52.4013 42.3013C52.4427 41.8841 52.5765 41.4814 52.793 41.1222C53.0094 40.7631 53.3031 40.4564 53.6529 40.2244C54.0027 39.9925 54.3997 39.8409 54.8154 39.7808L55.1063 38.8979C55.7074 36.8063 56.4233 33.9999 56.9956 31.1642C57.568 28.3285 58.0345 25.4711 58.2957 23.3099L58.4145 22.3447C58.0631 22.1265 57.7638 21.8342 57.5377 21.4882C57.3116 21.1422 57.1642 20.751 57.106 20.3422C57.0477 19.9334 57.08 19.5168 57.2006 19.1219C57.3211 18.727 57.527 18.3634 57.8037 18.0567C58.0804 17.7499 58.4211 17.5075 58.802 17.3466C59.1828 17.1856 59.5945 17.1099 60.0079 17.125C60.4214 17.14 60.8266 17.2453 61.195 17.4336C61.5634 17.6218 61.886 17.8883 62.1401 18.2144L63.0723 18.0046C65.2017 17.5214 68.0035 16.7518 70.7605 15.8552C73.3037 15.0727 75.7973 14.1379 78.2275 13.0559C78.5024 12.9537 78.7211 12.8504 78.9369 12.7484L78.937 12.7483L78.9371 12.7483C78.9888 12.7239 79.0403 12.6995 79.0924 12.6752C79.0926 12.4737 79.1127 12.2726 79.1523 12.0749C79.2097 11.694 79.3443 11.3287 79.5477 11.0014C79.7512 10.6741 80.0193 10.3917 80.3357 10.1712C80.6522 9.95072 81.0103 9.79687 81.3883 9.71901C81.7663 9.64115 82.1564 9.64093 82.5346 9.71833C82.9129 9.79572 83.2715 9.94912 83.5885 10.1692C83.9056 10.3893 84.1746 10.6714 84.379 10.9985C84.5834 11.3255 84.719 11.6906 84.7775 12.0715C84.8361 12.4524 84.8163 12.8411 84.7195 13.214C84.6796 13.3956 84.6248 13.5735 84.5556 13.7459L84.6455 13.8442C84.8238 14.0393 84.9947 14.2262 85.2 14.4432C86.689 16.0123 88.7355 18.0881 90.9066 20.0165C92.8881 21.7933 94.9596 23.4675 97.113 25.0325C97.3798 25.2284 97.6346 25.4062 97.8759 25.5734C98.4734 25.2024 99.1888 25.0686 99.8808 25.1983C100.543 25.3332 101.135 25.6995 101.551 26.2314C101.967 26.7632 102.18 27.4256 102.15 28.0994C102.12 28.7732 101.851 29.4141 101.39 29.9067C100.928 30.3993 100.306 30.7113 99.6346 30.7866L99.3497 31.6785C98.568 34.2171 97.9272 36.7969 97.4302 39.4061C96.8503 42.2403 96.4366 45.1085 96.2056 47.2759L96.1221 48.1069C96.5419 48.2667 96.9176 48.5237 97.2186 48.8566C97.5196 49.1896 97.7371 49.589 97.8533 50.0221C97.9695 50.4551 97.9811 50.9094 97.887 51.3476C97.793 51.7859 97.596 52.1954 97.3124 52.5427C97.0287 52.8899 96.6665 53.165 96.2554 53.3451C95.8443 53.5253 95.3962 53.6055 94.9478 53.5791C94.4995 53.5527 94.0637 53.4204 93.6764 53.1931C93.2891 52.9659 92.9613 52.6502 92.72 52.272C92.3711 52.3285 92.0355 52.4051 91.6713 52.4881L91.4867 52.5301C88.8904 53.1244 86.3284 53.8585 83.8119 54.7294C81.0669 55.6442 78.3682 56.7176 76.3763 57.6058C76.1599 57.6966 75.972 57.7829 75.7894 57.8668L75.7893 57.8668L75.789 57.8669L75.7887 57.8671C75.6954 57.9099 75.6035 57.9521 75.5099 57.994C75.5072 58.1747 75.4888 58.3549 75.4548 58.5325C75.3974 58.9134 75.2628 59.2787 75.0594 59.606C74.8559 59.9332 74.5878 60.2157 74.2714 60.4362C73.955 60.6567 73.5968 60.8105 73.2188 60.8884C72.8407 60.9662 72.4507 60.9665 72.0725 60.8891C71.6942 60.8117 71.3356 60.6583 71.0185 60.4382C70.7015 60.2181 70.4326 59.9359 70.2282 59.6089C70.0238 59.2819 69.8881 58.9168 69.8296 58.5359C69.771 58.155 69.7908 57.7663 69.8876 57.3933C69.9285 57.1986 69.9885 57.0083 70.0668 56.8253C69.9281 56.682 69.8057 56.5449 69.6787 56.4027C69.5975 56.3117 69.5144 56.2186 69.424 56.1205ZM57.8494 43.7236L58.4922 44.4283L58.486 44.4585C59.9644 46.0411 62.0202 48.0717 64.1928 49.9926C66.3654 51.9136 68.6413 53.7143 70.4204 54.9815C70.6888 55.1699 70.9436 55.3477 71.1864 55.5073C71.7841 55.1517 72.4935 55.0319 73.1755 55.1714C73.8574 55.311 74.4628 55.6998 74.8727 56.2616C75.1123 56.2149 75.3588 56.1594 75.6196 56.1007L75.6203 56.1005L75.621 56.1003L75.8034 56.0593C77.9343 55.5686 80.7315 54.8216 83.4841 53.9084C86.0205 53.1017 88.5102 52.1561 90.9421 51.0758C91.4253 50.8684 91.8525 50.6652 92.2464 50.4709C92.2576 50.3765 92.2767 50.2832 92.3035 50.192C92.4063 49.7001 92.6384 49.2445 92.976 48.872C93.3137 48.4994 93.7446 48.2234 94.2247 48.0721L94.5769 46.9662C95.2158 44.8823 95.9619 42.0821 96.5418 39.2479C97.1096 36.6531 97.5335 34.029 97.8117 31.3874L97.9001 30.4552C97.3788 30.1614 96.9637 29.7105 96.7144 29.1672C96.4651 28.6239 96.3943 28.016 96.5121 27.4304C96.5522 27.2381 96.6117 27.0503 96.6898 26.8699C96.5916 26.7657 96.4992 26.6642 96.4062 26.5621C96.2909 26.4354 96.1746 26.3078 96.0454 26.1726C94.235 24.2248 92.3231 22.3735 90.3175 20.6264C88.1826 18.7131 85.8599 16.9107 84.0914 15.63C83.817 15.4325 83.5622 15.2547 83.3209 15.0875C82.7231 15.4314 82.0196 15.5444 81.3434 15.4054C80.6516 15.2521 80.0415 14.8473 79.6319 14.2699L78.7194 14.4601C76.1258 15.0533 73.5693 15.7967 71.0626 16.6866C68.3221 17.618 65.6174 18.6824 63.6255 19.5706C63.3059 19.7094 63.0378 19.8274 62.7591 19.9588C62.7575 20.1345 62.74 20.3096 62.7071 20.4822C62.5876 21.0491 62.2977 21.566 61.8759 21.9638C61.4542 22.3617 60.9208 22.6215 60.3469 22.7087L60.0711 23.6339C59.4624 25.724 58.7616 28.5334 58.1893 31.3692C57.6169 34.2049 57.1504 37.0623 56.8892 39.2235L56.7795 40.1827C57.2658 40.4936 57.6463 40.9443 57.8706 41.4754C58.095 42.0065 58.1527 42.5928 58.0361 43.157C57.9972 43.3528 57.9345 43.543 57.8494 43.7236Z" fill="#C4C4C4"/>
</svg>
